<?xml version="1.0" encoding="UTF-8" standalone="no"?>
<!DOCTYPE svg PUBLIC "-//W3C//DTD SVG 1.1//EN" "http://www.w3.org/Graphics/SVG/1.1/DTD/svg11.dtd">
<svg width="100%" height="100%" viewBox="0 0 284 284" version="1.1" xmlns="http://www.w3.org/2000/svg" xmlns:xlink="http://www.w3.org/1999/xlink" xml:space="preserve" xmlns:serif="http://www.serif.com/" style="fill-rule:evenodd;clip-rule:evenodd;stroke-linejoin:round;stroke-miterlimit:2;">
    <g transform="matrix(3.52403,0,0,3.52403,-356.163,-133.303)">
        <path d="M162.06,84.03C163.86,86.1 166.59,87.35 169.6,87.13C174.13,86.8 177.8,83.02 178.01,78.49C178.25,73.26 174.09,68.95 168.92,68.95C166.21,68.95 163.78,70.13 162.12,72.01C159.43,75.04 155.68,76.92 151.62,76.92L150.28,76.92C147.97,76.92 146.82,74.13 148.45,72.5L148.93,72.02C151.91,69.04 156.01,67.3 160.21,67.59C162.95,67.78 165.76,66.73 167.73,64.45C170.7,61.01 170.62,55.75 167.56,52.39C164.04,48.52 158.04,48.42 154.39,52.08C152.42,54.05 151.54,56.69 151.76,59.27C152.1,63.34 150.42,67.32 147.54,70.2L146.85,70.89C145.22,72.52 142.43,71.37 142.43,69.06L142.43,68.38C142.43,64.16 144.09,60.04 147.27,57.27C149.34,55.47 150.59,52.74 150.37,49.73C150.04,45.2 146.26,41.53 141.73,41.32C136.5,41.08 132.19,45.24 132.19,50.41C132.19,53.12 133.37,55.55 135.25,57.21C138.28,59.9 140.16,63.65 140.16,67.71L140.16,69.05C140.16,71.36 137.37,72.51 135.74,70.88L135.26,70.4C132.28,67.42 130.54,63.32 130.83,59.12C131.02,56.38 129.97,53.57 127.69,51.6C124.25,48.63 118.99,48.71 115.63,51.77C111.76,55.29 111.66,61.29 115.32,64.94C117.29,66.91 119.93,67.79 122.51,67.57C126.58,67.23 130.56,68.91 133.44,71.79L134.13,72.48C135.76,74.11 134.61,76.9 132.3,76.9L131.62,76.9C127.4,76.9 123.28,75.24 120.51,72.06C118.71,69.99 115.98,68.74 112.97,68.96C108.44,69.29 104.77,73.07 104.56,77.6C104.32,82.83 108.48,87.14 113.65,87.14C116.36,87.14 118.79,85.96 120.45,84.08C123.14,81.05 126.89,79.17 130.95,79.17L132.29,79.17C134.6,79.17 135.75,81.96 134.12,83.59L133.64,84.07C130.66,87.05 126.56,88.79 122.36,88.5C119.62,88.31 116.81,89.36 114.84,91.64C111.87,95.08 111.95,100.34 115.01,103.7C118.53,107.57 124.53,107.67 128.18,104.01C130.15,102.04 131.03,99.4 130.81,96.82C130.47,92.75 132.15,88.77 135.03,85.89L135.72,85.2C137.35,83.57 140.14,84.72 140.14,87.03L140.14,87.71C140.14,91.93 138.48,96.05 135.3,98.82C133.23,100.62 131.98,103.35 132.2,106.36C132.53,110.89 136.31,114.56 140.84,114.77C146.07,115.01 150.38,110.85 150.38,105.68C150.38,102.97 149.2,100.54 147.32,98.88C144.29,96.19 142.41,92.44 142.41,88.38L142.41,87.04C142.41,84.73 145.2,83.58 146.83,85.21L147.31,85.69C150.29,88.67 152.03,92.77 151.74,96.97C151.55,99.71 152.6,102.52 154.88,104.49C158.32,107.46 163.58,107.38 166.94,104.32C170.81,100.8 170.91,94.8 167.25,91.15C165.28,89.18 162.64,88.3 160.06,88.52C155.99,88.86 152.01,87.18 149.13,84.3L148.44,83.61C146.81,81.98 147.96,79.19 150.27,79.19L150.95,79.19C155.17,79.19 159.29,80.85 162.06,84.03Z" style="fill:rgb(213,146,120);fill-rule:nonzero;"/>
    </g>
</svg>
